<svg width="28" height="30" viewBox="0 0 28 30" fill="none" xmlns="http://www.w3.org/2000/svg">
<path d="M23.649 16.2884V11.5908C23.649 7.10138 23.649 4.85017 22.3478 3.4578C21.0465 2.06544 18.8864 2.06543 14.6312 2.06543H10.7274C6.45918 2.06543 4.32509 2.06544 2.99779 3.4578C1.67048 4.85017 1.69651 7.10138 1.69651 11.5908V18.3964C1.69651 22.8858 1.69651 25.137 2.99779 26.5294C4.29906 27.9218 6.45918 27.9218 10.7274 27.9218H12.7183" stroke="white" stroke-width="3" stroke-linecap="round" stroke-linejoin="round"/>
<path d="M15.8934 25.3321C15.8934 25.3321 17.1946 25.3321 18.4959 27.9346C18.4959 27.9346 22.5949 21.4282 26.3036 20.127" stroke="white" stroke-width="2" stroke-linecap="round" stroke-linejoin="round"/>
<path d="M7.51324 2.06543L7.61733 2.70304C7.87758 4.25156 8.00771 5.01933 8.55425 5.48779C9.10079 5.95625 9.85553 5.94325 11.4431 5.94325H13.9285C15.4901 5.94325 16.2838 5.94324 16.8174 5.48779C17.3509 5.03234 17.494 4.1865 17.7543 2.70304L17.8584 2.06543" stroke="white" stroke-width="2" stroke-linejoin="round"/>
<path d="M7.51324 20.166H12.7183M7.51324 13.6597H17.8584" stroke="white" stroke-width="2" stroke-linecap="round"/>
</svg>
