<svg width="27" height="31" viewBox="0 0 27 31" fill="none" xmlns="http://www.w3.org/2000/svg">
<path d="M6.74121 3.55786C4.72126 3.55786 3.52232 3.8315 2.68828 4.66554C1.5545 5.81236 1.5545 7.63684 1.5545 11.3118V19.7305C1.5545 23.3924 1.5545 25.23 2.68828 26.3638C3.82206 27.4975 5.65955 27.5105 9.32153 27.5105H15.8375C19.4995 27.5105 21.337 27.5106 22.4708 26.3638C23.6045 25.2169 23.6045 23.3924 23.6045 19.7305V11.3118C23.6045 7.63684 23.6045 5.81236 22.4708 4.66554C21.6367 3.8315 20.4378 3.60999 18.4178 3.55786" stroke="white" stroke-width="3"/>
<path d="M6.74119 3.87055C6.73946 3.574 6.79659 3.28006 6.90928 3.00575C7.02197 2.73144 7.18796 2.4822 7.39766 2.2725C7.60736 2.06281 7.8566 1.89681 8.13091 1.78412C8.40522 1.67144 8.69916 1.61428 8.99571 1.61601H16.1242C16.4355 1.59236 16.7484 1.63326 17.0432 1.73616C17.3381 1.83906 17.6084 2.00177 17.8375 2.21404C18.0665 2.42631 18.2492 2.68359 18.3741 2.96976C18.499 3.25592 18.5635 3.56482 18.5635 3.87708C18.5635 4.18933 18.499 4.49823 18.3741 4.7844C18.2492 5.07057 18.0665 5.32784 17.8375 5.54011C17.6084 5.75238 17.3381 5.91505 17.0432 6.01795C16.7484 6.12086 16.4355 6.16175 16.1242 6.1381H9.06088C8.75827 6.14685 8.457 6.09458 8.17503 5.98439C7.89307 5.87419 7.63618 5.70834 7.41969 5.49672C7.20321 5.28511 7.03156 5.03205 6.91499 4.75266C6.79842 4.47327 6.73932 4.17328 6.74119 3.87055Z" stroke="white" stroke-width="2" stroke-linejoin="round"/>
<path d="M14.5082 13.2666H19.0434" stroke="white" stroke-width="2" stroke-linecap="round"/>
<path d="M6.08966 14.5567C6.08966 14.5567 6.74126 14.5567 7.39285 15.8599C7.39285 15.8599 9.43887 12.6149 11.3024 11.9503" stroke="white" stroke-width="2" stroke-linecap="round" stroke-linejoin="round"/>
<path d="M14.5082 21.0337H19.0434" stroke="white" stroke-width="2" stroke-linecap="round"/>
<path d="M7.39276 21.0337H8.69596" stroke="white" stroke-width="2" stroke-linecap="round" stroke-linejoin="round"/>
<path d="M22.4316 30.3906C24.6484 30.3906 26.4455 28.5935 26.4455 26.3768C26.4455 24.16 24.6484 22.3629 22.4316 22.3629C20.2148 22.3629 18.4178 24.16 18.4178 26.3768C18.4178 28.5935 20.2148 30.3906 22.4316 30.3906Z" fill="#6EBE45" stroke="#2E368F" stroke-miterlimit="10"/>
</svg>
