<svg width="34" height="30" viewBox="0 0 34 30" fill="none" xmlns="http://www.w3.org/2000/svg">
<path d="M0.977722 16.4313C1.04751 16.0236 1.13986 15.6201 1.25434 15.2227C1.66527 13.8595 2.56126 12.694 3.77299 11.9466L3.96226 11.8155C3.5082 11.405 3.14268 10.9062 2.88806 10.3495C2.63344 9.79286 2.49509 9.19008 2.48146 8.57807C2.46784 7.96607 2.57921 7.35772 2.8088 6.79026C3.03838 6.2228 3.38133 5.70817 3.81666 5.27786C4.60945 4.50047 5.66394 4.04714 6.77347 4.00674C7.88301 3.96634 8.96764 4.34178 9.81486 5.05946C10.2748 5.45414 10.6502 5.93764 10.9186 6.48104C11.1871 7.02443 11.343 7.61647 11.377 8.22161C11.411 8.82675 11.3224 9.43254 11.1165 10.0026C10.9106 10.5726 10.5916 11.0952 10.1788 11.5389L13.0906 12.995V12.5873C13.0906 9.79162 13.0906 6.99601 13.0906 4.18582C13.0647 3.69566 13.1602 3.2067 13.3684 2.76224C13.5766 2.31778 13.8912 1.93153 14.2844 1.63771C14.7823 1.24657 15.3983 1.03609 16.0314 1.04072C20.7193 1.04072 25.4218 1.04072 30.1097 1.04072C30.8819 1.04072 31.6225 1.34753 32.1686 1.89366C32.7146 2.43979 33.0214 3.1805 33.0214 3.95284V14.917C33.0311 15.3055 32.963 15.692 32.821 16.0537C32.679 16.4155 32.4661 16.7452 32.1948 17.0234C31.9234 17.3015 31.5991 17.5226 31.241 17.6735C30.8829 17.8243 30.4983 17.902 30.1097 17.9019H25.4072C25.5528 18.3241 25.6984 18.7173 25.844 19.0958L28.945 27.5846C29.0111 27.7094 29.0475 27.8478 29.0514 27.989C29.0553 28.1302 29.0265 28.2704 28.9673 28.3986C28.9081 28.5268 28.8201 28.6397 28.7102 28.7283C28.6003 28.817 28.4714 28.879 28.3335 28.9097C28.1501 28.9691 27.9518 28.964 27.7717 28.8951C27.5916 28.8262 27.4405 28.6978 27.3435 28.5311C27.1671 28.1665 27.0116 27.7922 26.8776 27.4099L23.5 18.1931C23.4127 17.9456 23.2816 17.9019 23.0487 17.8873C22.9531 17.8779 22.8574 17.9038 22.7796 17.9602C22.7019 18.0165 22.6474 18.0993 22.6265 18.1931C21.4473 21.4692 20.2534 24.7599 19.0596 28.0361C19.0067 28.1928 18.9384 28.344 18.8558 28.4874C18.75 28.6869 18.5722 28.8386 18.3585 28.9116C18.1449 28.9846 17.9114 28.9735 17.7057 28.8806C17.4908 28.7927 17.3173 28.6267 17.22 28.4159C17.1228 28.2051 17.109 27.9653 17.1816 27.7448C17.5164 26.7693 17.8804 25.7937 18.2298 24.8327C19.0354 22.6389 19.8312 20.4403 20.6174 18.2368C20.6636 18.1343 20.6978 18.0268 20.7193 17.9164H17.5164C17.4199 17.944 17.3369 18.0062 17.2834 18.0912C16.9246 18.6372 16.3739 19.0285 15.7402 19.1876C15.1066 19.3467 14.4363 19.262 13.8622 18.9502L11.329 17.6689L10.9796 17.5233V27.7157C10.9796 28.6039 10.6447 28.9388 9.77118 28.9388C7.93679 28.9388 6.11694 28.9388 4.2971 28.9388C4.12753 28.9638 3.95446 28.9485 3.79189 28.8942C3.62932 28.8399 3.48182 28.748 3.36133 28.6261C3.24083 28.5041 3.15074 28.3556 3.09832 28.1923C3.04591 28.0291 3.03266 27.8559 3.05963 27.6866C3.05963 26.1432 3.05963 24.5997 3.05963 23.0563C3.07113 22.9627 3.04984 22.8681 2.9994 22.7885C2.94897 22.7088 2.8725 22.6491 2.78301 22.6195C2.38264 22.4487 2.02714 22.1877 1.74429 21.8568C1.46144 21.526 1.2589 21.1342 1.15244 20.7121C1.13149 20.6156 1.09718 20.5225 1.05052 20.4354L0.977722 16.4313ZM16.1624 14.5093L16.3517 14.1161C16.934 12.9658 17.5164 11.8155 18.0842 10.6652C18.1377 10.5181 18.2269 10.3865 18.3438 10.2823C18.4607 10.1782 18.6016 10.1046 18.7539 10.0683C18.9263 10.0178 19.1098 10.02 19.281 10.0745C19.4522 10.129 19.6032 10.2333 19.7148 10.3741C19.8256 10.5346 19.8849 10.725 19.8849 10.9201C19.8849 11.1151 19.8256 11.3056 19.7148 11.4661L17.6037 15.7032C17.5447 15.8121 17.4913 15.9238 17.4436 16.0381H29.8476C30.0099 16.0524 30.1733 16.0302 30.3258 15.9731C30.4784 15.9161 30.6163 15.8256 30.7294 15.7083C30.8424 15.591 30.9278 15.4499 30.9793 15.2954C31.0308 15.1408 31.047 14.9767 31.0269 14.815V4.09846C31.0508 3.93164 31.0357 3.76153 30.983 3.60149C30.9302 3.44145 30.8411 3.2958 30.7226 3.17593C30.6042 3.05607 30.4596 2.96524 30.3003 2.91056C30.1409 2.85589 29.971 2.83887 29.8039 2.8608H16.0605C15.8962 2.83982 15.7293 2.85649 15.5724 2.90959C15.4154 2.96268 15.2727 3.05078 15.1549 3.16722C15.037 3.28367 14.9472 3.42543 14.8922 3.58172C14.8373 3.738 14.8186 3.90473 14.8376 4.06931V13.5919C14.8448 13.7245 14.902 13.8494 14.9977 13.9414C15.4199 14.1598 15.7694 14.32 16.1624 14.5093ZM8.99957 27.0896V16.3002C8.98517 16.1209 8.98517 15.9407 8.99957 15.7615C9.0454 15.5637 9.15653 15.3872 9.31502 15.2604C9.47352 15.1335 9.67011 15.0639 9.87308 15.0626C10.0902 15.0848 10.3019 15.1439 10.4991 15.2373L14.5755 17.2612C14.7977 17.3345 15.0376 17.3345 15.2598 17.2612C15.3813 17.2256 15.4875 17.1504 15.5613 17.0475C15.6352 16.9446 15.6725 16.8199 15.6674 16.6934C15.6657 16.5684 15.6256 16.447 15.5527 16.3454C15.4799 16.2439 15.3776 16.1671 15.2598 16.1255C13.5128 15.2664 11.7512 14.4365 10.0478 13.5192C8.84627 12.9024 7.47531 12.6977 6.14606 12.9367C5.30906 13.0799 4.54025 13.4883 3.95306 14.1018C3.36587 14.7153 2.99139 15.5014 2.88491 16.3439C2.783 17.5524 2.81211 18.7755 2.88491 19.9986C2.88817 20.2566 2.98917 20.5038 3.1675 20.6902C3.34583 20.8767 3.58822 20.9885 3.84579 21.0033C3.99333 20.9924 4.14143 21.0152 4.27886 21.07C4.4163 21.1248 4.53946 21.2101 4.63905 21.3195C4.73864 21.4289 4.81204 21.5595 4.85369 21.7015C4.89534 21.8435 4.90415 21.9931 4.87946 22.139V27.0314L8.99957 27.0896ZM6.93222 11.0729C7.439 11.0729 7.93442 10.9227 8.35579 10.6411C8.77716 10.3595 9.10558 9.95926 9.29952 9.491C9.49345 9.02273 9.5442 8.50743 9.44534 8.01032C9.34647 7.51322 9.10243 7.05663 8.74408 6.69824C8.38573 6.33984 7.92916 6.09575 7.43212 5.99687C6.93508 5.89799 6.41986 5.94874 5.95166 6.1427C5.48346 6.33667 5.08329 6.66513 4.80173 7.08656C4.52018 7.50798 4.3699 8.00346 4.3699 8.51031C4.38139 9.18104 4.65687 9.82015 5.13658 10.289C5.61628 10.7579 6.26149 11.0187 6.93222 11.0147V11.0729Z" fill="white" stroke="white" stroke-width="0.5"/>
<path d="M23.0488 6.87955H18.2298C18.0427 6.88508 17.8559 6.86047 17.6766 6.80672C17.478 6.73738 17.3105 6.5998 17.2038 6.41849C17.0972 6.23717 17.0584 6.02389 17.0943 5.81661C17.1273 5.6113 17.2261 5.42223 17.3757 5.27783C17.5253 5.13343 17.7178 5.04146 17.9241 5.01575H27.8531C28.0076 4.99345 28.1645 4.99345 28.319 5.01575C28.5332 5.07056 28.7205 5.20098 28.8462 5.38292C28.9719 5.56486 29.0277 5.78609 29.0033 6.0059C28.9852 6.22614 28.8857 6.43172 28.7241 6.5825C28.5626 6.73327 28.3507 6.81841 28.1298 6.82129C27.2417 6.82129 26.339 6.82129 25.4509 6.82129L23.0488 6.87955Z" fill="white"/>
<path d="M25.4946 10.4178H23.0487C22.8945 10.4348 22.7384 10.4129 22.5947 10.3543C22.4511 10.2957 22.3243 10.2021 22.226 10.0821C22.1276 9.96201 22.0608 9.81928 22.0316 9.66686C22.0024 9.51443 22.0117 9.35712 22.0587 9.20922C22.1142 9.01077 22.2348 8.83678 22.4012 8.71527C22.5676 8.59377 22.77 8.53184 22.9759 8.53944C24.6356 8.53944 26.3099 8.53944 27.9696 8.53944C28.0956 8.53549 28.2211 8.55714 28.3385 8.60312C28.4559 8.64909 28.5628 8.71842 28.6526 8.8069C28.7424 8.89538 28.8134 9.0012 28.8611 9.1179C28.9089 9.23461 28.9324 9.35979 28.9304 9.48587C28.9248 9.61403 28.894 9.73984 28.8397 9.85606C28.7854 9.97229 28.7088 10.0766 28.6141 10.1632C28.5195 10.2498 28.4087 10.3168 28.2881 10.3605C28.1675 10.4042 28.0394 10.4236 27.9113 10.4178H25.4946Z" fill="white"/>
<path d="M25.5091 13.9269H23.0487C22.8656 13.9364 22.684 13.89 22.5279 13.7937C22.3719 13.6975 22.2488 13.556 22.1752 13.3881C22.0828 13.2394 22.0426 13.0642 22.0611 12.8901C22.0795 12.716 22.1556 12.5531 22.2771 12.4271C22.4465 12.2333 22.6781 12.1045 22.9322 12.0631C24.6501 12.0631 26.3826 12.0631 28.1006 12.0631C28.2217 12.0668 28.3408 12.0948 28.4509 12.1454C28.561 12.1961 28.6597 12.2685 28.7413 12.3582C28.8228 12.4478 28.8854 12.553 28.9254 12.6674C28.9654 12.7818 28.982 12.9031 28.9741 13.0241C28.9628 13.2713 28.8566 13.5047 28.6777 13.6755C28.4987 13.8464 28.2607 13.9416 28.0132 13.9414L25.5091 13.9269Z" fill="white"/>
</svg>
