<svg width="28" height="32" viewBox="0 0 28 32" fill="none" xmlns="http://www.w3.org/2000/svg">
<path fill-rule="evenodd" clip-rule="evenodd" d="M8.12519 0.912193C8.3257 0.870776 8.52512 0.871468 8.71428 0.908233C9.64094 0.881126 10.6694 0.881151 11.8004 0.881179L11.9097 0.881181H16.0904L16.2001 0.881179C17.3322 0.881151 18.3599 0.881125 19.2852 0.90834C19.464 0.87353 19.6523 0.87095 19.8423 0.905843C19.8853 0.913737 19.9275 0.923393 19.9689 0.934721C20.5655 0.963928 21.1145 1.00906 21.6167 1.07879C23.1125 1.28649 24.4119 1.73756 25.4454 2.80406C26.4779 3.86946 26.8966 5.20089 27.0865 6.72245C27.2627 8.13359 27.2623 9.91338 27.2619 12.0798L27.2618 12.4155V19.5848V19.6873C27.2619 21.9648 27.2619 23.8192 27.0756 25.2816C26.8821 26.8004 26.4645 28.1237 25.4557 29.1855C24.431 30.264 23.1216 30.7145 21.6266 30.9216C20.1996 31.1192 18.3922 31.1192 16.1996 31.1191H16.0904H11.9097H11.7999C9.60789 31.1192 7.80719 31.1192 6.38337 30.9215C4.88753 30.7138 3.58819 30.2627 2.55464 29.1962C1.52216 28.1308 1.10349 26.7994 0.913532 25.2778C0.737357 23.8667 0.737731 22.0869 0.738185 19.9206L0.738231 19.5848V12.4155L0.73823 12.313C0.738189 10.0355 0.738155 8.1811 0.924455 6.71872C1.11795 5.19986 1.53556 3.87656 2.54437 2.81477C3.56905 1.73628 4.87849 1.28575 6.37345 1.07871C6.87874 1.00873 7.43172 0.963539 8.03259 0.934354C8.06301 0.926058 8.09389 0.918659 8.12519 0.912193ZM6.785 4.05035C6.92289 4.03125 7.06611 4.01431 7.21515 3.99928C7.29904 4.42986 7.39068 4.83486 7.50857 5.18822C7.71144 5.79624 8.03318 6.38914 8.64062 6.85214C9.23805 7.30751 9.89342 7.46882 10.5265 7.53694C11.0767 7.59614 11.7497 7.59582 12.4989 7.59547L12.6755 7.59541H15.3386L15.4128 7.59541C16.1969 7.59548 16.9019 7.59553 17.4806 7.53189C18.1072 7.46297 18.7628 7.30485 19.3572 6.86433C20.0044 6.38478 20.3164 5.73984 20.505 5.1551C20.6159 4.81111 20.7056 4.41283 20.7893 4.00066C20.9328 4.01533 21.0709 4.03179 21.2041 4.05028C22.3491 4.20927 22.9032 4.49158 23.2911 4.89185C23.68 5.29321 23.9582 5.88091 24.1096 7.09411C24.262 8.31449 24.2619 9.92314 24.2618 12.2377L24.2618 12.4155V19.5848C24.2618 21.9896 24.259 23.652 24.0996 24.9025C23.9447 26.1184 23.6656 26.7142 23.2808 27.1192C22.9119 27.5074 22.3679 27.7903 21.2151 27.9499C20.0179 28.1157 18.4195 28.1191 16.0904 28.1191H11.9097C9.58044 28.1191 7.98929 28.1157 6.79598 27.95C5.65099 27.791 5.09687 27.5087 4.70898 27.1085C4.32001 26.7071 4.04189 26.1194 3.89042 24.9062C3.73806 23.6858 3.73813 22.0772 3.73823 19.7627V19.7627L3.73823 19.5848V12.4155C3.73823 10.0107 3.7411 8.34834 3.9004 7.09784C4.0553 5.88194 4.33448 5.28611 4.71925 4.88114C5.08815 4.49287 5.63217 4.21001 6.785 4.05035ZM17.6497 4.23444C17.683 4.13118 17.7139 4.01682 17.7453 3.88455C17.2385 3.88141 16.6888 3.88118 16.0904 3.88118H11.9097C11.3125 3.88118 10.7634 3.8814 10.2567 3.88453C10.2892 4.02292 10.3208 4.13829 10.3544 4.23872C10.3983 4.3704 10.4309 4.42818 10.4442 4.44881C10.4518 4.46061 10.4536 4.46194 10.4579 4.46522L10.4592 4.4662L10.4597 4.46657C10.4648 4.47048 10.4769 4.47971 10.5182 4.49349C10.5703 4.51084 10.6681 4.53486 10.8475 4.55416C11.2311 4.59544 11.7501 4.59543 12.6211 4.59541H12.6212L12.6755 4.59541H15.3386C16.2206 4.59541 16.7578 4.59328 17.1526 4.54987C17.3358 4.52972 17.441 4.5048 17.5009 4.48528C17.529 4.47612 17.5462 4.46845 17.5567 4.46294C17.5732 4.43532 17.6063 4.36924 17.6497 4.23444ZM17.5449 4.47959C17.5448 4.4792 17.547 4.47599 17.5515 4.47112C17.5473 4.47755 17.545 4.47998 17.5449 4.47959ZM8.42863 13.2621C7.6002 13.2621 6.92863 13.9336 6.92863 14.7621C6.92863 15.5905 7.6002 16.2621 8.42863 16.2621H19.5714C20.3999 16.2621 21.0714 15.5905 21.0714 14.7621C21.0714 13.9336 20.3999 13.2621 19.5714 13.2621H8.42863ZM8.42863 19.4525C7.6002 19.4525 6.92863 20.1241 6.92863 20.9525C6.92863 21.7809 7.6002 22.4525 8.42863 22.4525H14C14.8285 22.4525 15.5 21.7809 15.5 20.9525C15.5 20.1241 14.8285 19.4525 14 19.4525H8.42863Z" fill="white"/>
</svg>
