<svg width="36" height="37" viewBox="0 0 36 37" fill="none" xmlns="http://www.w3.org/2000/svg">
<path d="M12.3586 29.3437V26.2532C12.3586 25.7939 12.6751 25.4104 13.1005 25.3047C13.1059 25.3031 13.113 25.301 13.121 25.2992L13.1216 25.2991C14.5886 24.9686 15.5801 23.6144 15.5068 22.1557C13.9033 21.4526 12.4658 20.0737 11.3129 18.1336C10.9551 17.5317 10.633 16.8884 10.3473 16.2113C7.14867 14.4447 4.89782 11.2632 4.31245 7.66378C4.19462 6.93939 4.40122 6.2021 4.87809 5.64139L12.3586 29.3437ZM12.3586 29.3437H11.2577C9.9151 29.3437 8.82328 30.4355 8.82328 31.778V33.5021C8.82328 34.0423 9.26118 34.4802 9.80142 34.4802H26.2684C26.8086 34.4802 27.2465 34.0423 27.2465 33.5021V31.778C27.2465 30.4355 26.1547 29.3437 24.8121 29.3437H23.7111V26.2533C23.7111 25.7918 23.3917 25.4069 22.9633 25.3033L22.9615 25.3028L22.9514 25.3001L22.9514 25.3001L22.9468 25.2991C21.4669 24.966 20.4729 23.5957 20.5628 22.1241C22.1384 21.412 23.5512 20.0459 24.6876 18.1337C25.0454 17.5318 25.3675 16.8883 25.6531 16.2112C28.8516 14.4445 31.1024 11.2631 31.6877 7.66378C31.8056 6.93939 31.599 6.20215 31.122 5.64145L12.3586 29.3437ZM29.1947 4.75024C29.9377 4.75024 30.6404 5.0751 31.122 5.64143L29.1947 4.75024ZM29.1947 4.75024H27.2465M29.1947 4.75024H27.2465M27.2465 4.75024V4.31265C27.2465 3.32371 26.4423 2.51953 25.4534 2.51953H10.5469C9.5579 2.51953 8.75384 3.32373 8.75384 4.31258V4.75017H6.80546C6.06241 4.75017 5.35965 5.07511 4.87811 5.64138L27.2465 4.75024ZM22.9663 25.3042L22.9659 25.3041L22.9663 25.3042ZM6.24333 7.34971L6.24333 7.3497C6.21742 7.19043 6.2603 7.03566 6.36826 6.90866C6.47784 6.77985 6.63695 6.70634 6.8054 6.70634H8.75378V7.796C8.75378 9.63325 8.95681 11.4221 9.34525 13.0918C7.7165 11.5867 6.60301 9.5614 6.24333 7.34971ZM16.6769 25.0172C17.1366 24.2989 17.3999 23.4919 17.4565 22.662C17.6365 22.6786 17.8179 22.6872 18.0006 22.6872C18.2064 22.6872 18.4108 22.6764 18.6135 22.6555C18.6807 23.6127 19.0229 24.5194 19.5756 25.2751H16.5005C16.5617 25.1913 16.6205 25.1053 16.6769 25.0173L16.6769 25.0172ZM23.0058 17.1342L23.2207 17.2619L23.0058 17.1342C21.6041 19.4931 19.818 20.731 18.0005 20.731C16.1826 20.731 14.3963 19.4931 12.9945 17.1343C11.5264 14.6639 10.7101 11.3485 10.7101 7.79619V4.47576H25.2902V7.79607C25.2902 11.3484 24.4739 14.6638 23.0058 17.1342ZM24.8121 31.3C25.0756 31.3 25.2903 31.5147 25.2903 31.7781V32.5241H10.7795V31.7781C10.7795 31.5147 10.9942 31.3 11.2577 31.3H24.8121ZM21.7548 27.2314V29.3437H14.315V27.2314H21.7548ZM29.7568 7.34977C29.3972 9.56126 28.2838 11.5865 26.6551 13.0916C27.0435 11.422 27.2465 9.63324 27.2465 7.79607V6.7064H29.1947C29.3632 6.7064 29.5223 6.77998 29.6318 6.90877C29.7398 7.03571 29.7827 7.19049 29.7568 7.34977Z" fill="white" stroke="white" stroke-width="0.5"/>
<path d="M22.4204 10.2451C22.3347 9.98161 22.1069 9.78952 21.8326 9.74958L19.6354 9.4303L18.6528 7.4393C18.5301 7.19081 18.277 7.03345 17.9999 7.03345C17.7227 7.03345 17.4696 7.19081 17.3469 7.4393L16.3643 9.4303L14.1671 9.74958C13.8928 9.7894 13.665 9.98154 13.5793 10.2452C13.4937 10.5088 13.5651 10.7981 13.7636 10.9916L15.3535 12.5414L14.9782 14.7297C14.9313 15.0029 15.0435 15.2789 15.2678 15.4418C15.492 15.6047 15.7893 15.6262 16.0346 15.4973L17.9999 14.4642L19.9651 15.4973C20.0716 15.5532 20.1879 15.5808 20.3038 15.5808C20.4547 15.5808 20.605 15.5339 20.7318 15.4418C20.9561 15.2788 21.0684 15.0028 21.0215 14.7296L20.6461 12.5413L22.236 10.9915C22.4346 10.7981 22.506 10.5088 22.4204 10.2451ZM19.3556 11.7657C19.184 11.933 19.1057 12.174 19.1462 12.4102L19.3368 13.5218L18.3386 12.997C18.2326 12.9412 18.1162 12.9134 17.9998 12.9134C17.8834 12.9134 17.7671 12.9413 17.661 12.997L16.6628 13.5218L16.8534 12.4102C16.894 12.174 16.8156 11.933 16.644 11.7657L15.8365 10.9786L16.9525 10.8164C17.1896 10.782 17.3947 10.6329 17.5007 10.4181L17.9999 9.40677L18.499 10.4181C18.6051 10.6329 18.81 10.7819 19.0472 10.8164L20.1632 10.9786L19.3556 11.7657Z" fill="white"/>
</svg>
