<svg width="44" height="45" viewBox="0 0 44 45" fill="none" xmlns="http://www.w3.org/2000/svg">
<path d="M28.7164 44.0364V41.9111C28.7243 41.3566 28.9501 40.8274 29.345 40.4381C29.7399 40.0488 30.2722 39.8306 30.8268 39.8306H30.9914C32.4442 39.8232 33.851 39.321 34.9801 38.4068C36.1092 37.4926 36.8932 36.2211 37.2028 34.8017V34.6969L38.2954 29.3087L40.2711 28.3209C41.3337 27.797 41.8576 27.5425 41.9773 27.0636C42.097 26.5846 41.7378 26.1207 41.0194 25.1778L37.0082 19.8943C36.7244 19.5754 36.4875 19.2175 36.3048 18.8316C36.172 18.3436 36.1016 17.8407 36.0952 17.3349C35.6564 13.0002 33.5789 8.99676 30.2872 6.14253C26.9955 3.2883 22.738 1.79878 18.3849 1.97841C14.0318 2.15804 9.91154 3.99331 6.86617 7.10904C3.8208 10.2248 2.08018 14.3857 2 18.7418C2.00691 21.5005 2.69332 24.215 3.99855 26.6453C5.30378 29.0756 7.18763 31.147 9.48358 32.6763M9.48358 32.6763V44.0064M9.48358 32.6763C10.8072 33.5554 12.2416 34.255 13.7492 34.7567" stroke="#83A62D" stroke-width="3" stroke-linejoin="round"/>
<path d="M26.2319 16.6763L28.1777 18.3377C28.9859 19.0412 29.39 19.3854 29.39 19.8344C29.39 20.2834 28.9859 20.6127 28.1777 21.3311L26.2319 23.0074" stroke="#83A62D" stroke-width="3" stroke-linejoin="round"/>
<path d="M11.5043 16.6763L9.55853 18.3377C8.7503 19.0412 8.34619 19.3854 8.34619 19.8344C8.34619 20.2834 8.7503 20.6127 9.55853 21.3311L11.5043 23.0074" stroke="#83A62D" stroke-width="3" stroke-linejoin="round"/>
<path d="M20.9783 14.5659L16.7576 25.0429" stroke="#83A62D" stroke-width="3" stroke-linejoin="round"/>
</svg>
