<svg width="41" height="40" viewBox="0 0 41 40" fill="none" xmlns="http://www.w3.org/2000/svg">
<g clip-path="url(#clip0_70_330)">
<path d="M22.0467 8.80192C22.2545 8.19957 22.3621 7.56725 22.3653 6.93007C22.3653 5.44422 21.775 4.01921 20.7244 2.96856C19.6737 1.9179 18.2487 1.32764 16.7629 1.32764C15.2771 1.32764 13.8521 1.9179 12.8014 2.96856C11.7508 4.01921 11.1605 5.44422 11.1605 6.93007C11.1573 7.56779 11.2651 8.20117 11.4791 8.80192C7.2176 8.80192 4.93417 8.9612 3.51366 10.4348C2.09314 11.9084 1.89401 14.1919 1.88074 18.4003C2.47688 18.1862 3.10594 18.0784 3.73934 18.0817C5.22519 18.0817 6.65018 18.672 7.70083 19.7226C8.75149 20.7733 9.34173 22.1983 9.34173 23.6841C9.34173 25.17 8.75149 26.5949 7.70083 27.6456C6.65018 28.6962 5.22519 29.2865 3.73934 29.2865C3.10594 29.2898 2.47688 29.1819 1.88074 28.9679C1.88074 33.2294 2.04004 35.5128 3.51366 36.9334C4.98727 38.3539 7.27071 38.553 11.4791 38.5663C11.2651 37.9701 11.1572 37.3411 11.1605 36.7077C11.1605 35.2218 11.7508 33.7968 12.8014 32.7462C13.8521 31.6955 15.2771 31.1053 16.7629 31.1053C18.2487 31.1053 19.6737 31.6955 20.7244 32.7462C21.775 33.7968 22.3653 35.2218 22.3653 36.7077C22.3686 37.3411 22.2608 37.9701 22.0467 38.5663C26.3082 38.5663 28.5917 38.407 30.0122 36.9334C31.4327 35.4597 31.6318 33.1763 31.6451 28.9679C32.2458 29.1819 32.8793 29.2897 33.517 29.2865C35.0028 29.2865 36.4278 28.6962 37.4785 27.6456C38.5291 26.5949 39.1194 25.17 39.1194 23.6841C39.1194 22.1983 38.5291 20.7733 37.4785 19.7226C36.4278 18.672 35.0028 18.0817 33.517 18.0817C32.8793 18.0785 32.2458 18.1863 31.6451 18.4003C31.6451 14.1388 31.4858 11.8553 30.0122 10.4348C28.5386 9.01431 26.3082 8.80192 22.0467 8.80192Z" stroke="#2E3192" stroke-width="3" stroke-linejoin="round"/>
</g>
<defs>
<clipPath id="clip0_70_330">
<rect width="40" height="40" fill="white" transform="translate(0.5)"/>
</clipPath>
</defs>
</svg>
