<svg width="40" height="40" viewBox="0 0 40 40" fill="none" xmlns="http://www.w3.org/2000/svg">
<g clip-path="url(#clip0_72_332)">
<path d="M22.8742 1.32764H17.1656C9.42581 1.32764 5.54926 1.32763 3.25255 3.73055C0.955834 6.13348 1.20808 9.95688 1.68601 17.5639L2.01791 22.8742C2.04137 24.0027 2.16577 25.1268 2.38963 26.2331C2.76621 27.6218 3.52631 28.8764 4.58288 29.8531C5.63945 30.8299 6.94977 31.4892 8.36374 31.7558C9.49332 31.9178 10.6359 31.9712 11.7756 31.9151C12.0759 31.8872 12.3781 31.8872 12.6784 31.9151C13.0465 31.9839 13.3859 32.1608 13.653 32.4233C13.9202 32.6857 14.1032 33.0219 14.1786 33.3887C14.2145 33.6841 14.2145 33.9828 14.1786 34.2782V35.9377C14.1786 37.5175 14.1786 38.3008 14.683 38.5928C15.1875 38.8849 15.8646 38.4335 17.1921 37.5573L25.078 32.3665C25.2301 32.2617 25.3899 32.1685 25.5559 32.0877C25.7304 31.9984 25.9191 31.94 26.1135 31.9151H26.6711C29.9369 31.9151 31.5566 31.9151 32.8842 31.4239C34.7997 30.7205 36.3599 29.2891 37.2253 27.4411C37.7962 26.1135 37.9024 24.5736 38.1015 21.3609L38.3405 17.6171C38.8185 10.01 39.0707 6.19983 36.774 3.78363C34.4772 1.36743 30.614 1.32764 22.8742 1.32764Z" stroke="#F26664" stroke-width="3" stroke-linejoin="round"/>
<path d="M27.4677 12.5322L29.7643 14.5103C30.7202 15.3334 31.2114 15.745 31.2114 16.2627C31.2114 16.7805 30.7202 17.1921 29.7643 18.0284L27.4677 20.0065" stroke="#F26664" stroke-width="3" stroke-linecap="round" stroke-linejoin="round"/>
<path d="M12.5324 12.5322L10.2356 14.5103C9.27979 15.3334 8.80188 15.745 8.80188 16.2627C8.80188 16.7805 9.27979 17.1921 10.2356 18.0284L12.5324 20.0065" stroke="#F26664" stroke-width="3" stroke-linecap="round" stroke-linejoin="round"/>
<path d="M21.8653 10.6606L18.1348 21.8654" stroke="#F26664" stroke-width="3" stroke-linecap="round" stroke-linejoin="round"/>
</g>
<defs>
<clipPath id="clip0_72_332">
<rect width="40" height="40" fill="white"/>
</clipPath>
</defs>
</svg>
