<svg width="40" height="40" viewBox="0 0 40 40" fill="none" xmlns="http://www.w3.org/2000/svg">
<g clip-path="url(#clip0_72_343)">
<path d="M4.12878 31.2113C4.12878 28.5562 4.12878 27.2286 4.95188 26.4188C5.77498 25.6089 7.08929 25.6089 9.73118 25.6089H10.6737C12.4262 25.6089 13.3289 25.6089 13.86 26.1532C14.391 26.6975 14.4043 27.5737 14.4043 29.3394V38.6324H4.12878V31.2113Z" stroke="#009821" stroke-width="3" stroke-linecap="round" stroke-linejoin="round"/>
<path d="M25.609 33.0699C25.609 31.3175 25.609 30.4147 26.1533 29.8837C26.6976 29.3527 27.5871 29.3394 29.3395 29.3394H30.2821C32.9373 29.3394 34.2649 29.3394 35.0614 30.1625C35.858 30.9856 35.8845 32.2999 35.8845 34.9418V38.6723H25.609V33.0699Z" stroke="#009821" stroke-width="3" stroke-linecap="round" stroke-linejoin="round"/>
<path d="M1.27454 38.6724H38.6327" stroke="#009821" stroke-width="3" stroke-linecap="round" stroke-linejoin="round"/>
<path d="M14.4043 27.4676C14.4043 24.8124 14.4043 23.4849 15.2274 22.6883C16.0505 21.8918 17.3648 21.8652 20.0066 21.8652C22.6485 21.8652 23.9894 21.8652 24.7859 22.6883C25.5825 23.5114 25.609 24.8257 25.609 27.4676V38.6724H14.4043V27.4676Z" stroke="#009821" stroke-width="3" stroke-linecap="round" stroke-linejoin="round"/>
<path d="M21.2944 2.40298L22.622 5.05814C22.7348 5.25541 22.8875 5.42694 23.0704 5.56181C23.2533 5.69669 23.4623 5.79197 23.6841 5.84145L26.0737 6.2397C27.5871 6.50522 27.9456 7.56728 26.857 8.72227L24.9984 10.5809C24.8418 10.7611 24.7263 10.9731 24.6598 11.2023C24.5933 11.4316 24.5775 11.6725 24.6134 11.9085L25.1444 14.2185C25.556 16.0505 24.6001 16.7542 22.9937 15.7983L20.7634 14.4707C20.5332 14.353 20.2784 14.2916 20.0199 14.2916C19.7614 14.2916 19.5067 14.353 19.2765 14.4707L17.0462 15.7983C15.4398 16.7542 14.4707 16.0373 14.8955 14.2185L15.4265 11.9085C15.459 11.6726 15.4414 11.4325 15.3751 11.2038C15.3088 10.9751 15.1951 10.7629 15.0415 10.5809L13.1829 8.72227C12.0943 7.62038 12.4395 6.50522 13.9662 6.2397L16.3558 5.84145C16.5752 5.79029 16.7817 5.69426 16.9621 5.55946C17.1426 5.42467 17.2933 5.25398 17.4046 5.05814L18.7322 2.40298C19.4225 0.96919 20.5908 0.96919 21.2944 2.40298Z" stroke="#009821" stroke-width="3" stroke-linecap="round" stroke-linejoin="round"/>
</g>
<defs>
<clipPath id="clip0_72_343">
<rect width="40" height="40" fill="white"/>
</clipPath>
</defs>
</svg>
